<svg xmlns="http://www.w3.org/2000/svg" viewBox="0 0 1536 1024">
  <polygon points="702.0,748.5 696.5,743.0 719.5,723.0 727.0,704.5 708.0,715.5 686.0,705.5 640.0,725.5 621.0,716.5 584.0,717.5 579.5,708.0 592.5,689.0 582.0,682.5 570.0,684.5 560.0,701.5 528.0,713.5 510.5,711.0 492.5,691.0 500.0,683.5 657.0,564.5 687.0,567.5 742.0,528.5 778.0,532.5 797.0,506.5 823.0,498.5 910.0,438.5 923.0,421.5 942.0,419.5 1072.0,321.5 1095.0,323.5 1219.0,249.5 1389.0,127.5 1405.0,108.5 1520.5,58.0 1513.5,69.0 1525.5,74.0 1525.5,85.0 1507.0,92.5 1505.5,111.0 1486.0,117.5 1447.0,160.5 1367.0,194.5 1347.0,191.5 1320.5,211.0 1335.5,216.0 1301.0,231.5 1306.5,237.0 1281.0,260.5 1262.0,273.5 1249.0,272.5 1244.0,281.5 1228.0,282.5 1229.5,292.0 1206.0,304.5 1195.0,326.5 1161.0,343.5 1138.0,339.5 1130.0,352.5 1105.0,357.5 1050.0,392.5 1027.5,443.0 995.0,455.5 965.5,481.0 963.5,510.0 900.0,560.5 879.0,566.5 874.5,588.0 849.0,600.5 826.5,625.0 827.5,637.0 782.5,668.0 782.5,685.0 758.5,710.0 702.0,748.5" fill="white"/>
</svg>
