<svg xmlns="http://www.w3.org/2000/svg" viewBox="0 0 1536 1024">
  <polygon points="1302.0,1021.5 1296.5,1018.0 1302.5,1004.0 1315.5,992.0 1309.0,986.5 1297.0,993.5 1292.0,981.5 1279.5,990.0 1287.5,995.0 1281.0,998.5 1278.0,992.5 1263.0,1015.5 1251.0,1008.5 1243.0,1013.5 1237.0,1005.5 1230.5,1011.0 1235.0,1015.5 1217.0,1011.5 1227.5,1005.0 1216.0,997.5 1210.5,1011.0 1197.0,1017.5 1155.0,1021.5 1180.5,1003.0 1175.5,999.0 1183.0,988.5 1169.5,994.0 1171.5,1001.0 1153.0,1021.5 1105.0,1014.5 1095.0,1021.5 1032.0,1021.5 1032.0,1009.5 1014.0,1021.5 1012.0,1015.5 979.0,1021.5 980.5,1003.0 993.5,1001.0 987.0,996.5 972.5,1002.0 969.0,1015.5 962.5,1015.0 964.0,1005.5 953.5,1011.0 961.0,1016.5 941.5,1018.0 953.0,1021.5 934.0,1021.5 943.5,1012.0 935.0,1002.5 918.0,1010.5 911.0,999.5 888.0,1013.5 892.0,1004.5 861.0,1006.5 866.5,1003.0 853.0,995.5 848.5,998.0 858.0,1007.5 840.0,1017.5 824.5,1012.0 833.0,1021.5 804.0,1021.5 804.0,1010.5 798.0,1021.5 736.0,1021.5 728.5,1020.0 734.5,1014.0 730.0,1007.5 718.0,1019.5 710.0,1004.5 704.5,1007.0 711.5,1020.0 706.0,1021.5 696.5,1010.0 710.0,996.5 691.5,1002.0 688.0,1019.5 677.0,1008.5 660.0,1014.5 649.0,997.5 646.0,1002.5 632.0,991.5 624.0,999.5 615.0,995.5 616.5,977.0 597.0,975.5 596.0,966.5 583.0,962.5 569.5,973.0 572.0,981.5 559.0,967.5 551.0,973.5 553.0,962.5 545.0,971.5 530.0,960.5 504.0,957.5 470.0,976.5 443.0,977.5 435.0,991.5 407.0,998.5 399.5,993.0 407.0,987.5 389.0,989.5 375.0,974.5 353.0,971.5 348.0,977.5 337.0,966.5 329.0,972.5 327.0,954.5 318.5,959.0 326.5,960.0 320.0,968.5 305.0,968.5 305.0,962.5 274.0,969.5 266.0,962.5 247.0,972.5 250.5,966.0 244.0,963.5 231.0,974.5 229.0,966.5 207.0,971.5 215.5,966.0 209.0,955.5 201.0,956.5 201.0,973.5 197.0,965.5 183.5,964.0 187.5,954.0 213.0,943.5 212.5,925.0 228.5,914.0 196.0,905.5 158.5,921.0 164.0,935.5 173.5,928.0 169.5,942.0 177.5,956.0 171.5,960.0 178.0,964.5 166.0,969.5 155.0,957.5 126.0,953.5 119.0,963.5 99.0,965.5 88.0,975.5 67.0,962.5 60.5,968.0 62.0,985.5 35.0,978.5 28.0,983.5 14.5,969.0 17.5,964.0 42.0,970.5 46.5,960.0 38.0,954.5 31.0,963.5 23.0,961.5 20.0,942.5 59.0,930.5 72.0,936.5 83.5,929.0 75.5,922.0 86.0,910.5 96.0,919.5 110.5,903.0 91.0,899.5 86.0,907.5 70.0,897.5 82.5,885.0 70.0,865.5 60.5,867.0 68.5,860.0 65.5,853.0 50.0,853.5 42.0,843.5 67.0,839.5 74.5,851.0 71.5,862.0 89.0,862.5 89.0,870.5 94.0,861.5 122.0,865.5 154.5,858.0 117.0,847.5 109.0,856.5 82.5,855.0 90.5,851.0 75.5,845.0 81.5,833.0 99.5,825.0 70.0,819.5 65.5,810.0 86.5,803.0 78.5,799.0 89.5,794.0 84.0,783.5 140.0,768.5 151.5,771.0 142.0,770.5 143.0,776.5 159.0,775.5 169.0,761.5 194.0,773.5 230.0,762.5 238.0,783.5 241.5,778.0 233.5,771.0 249.0,769.5 253.0,760.5 299.0,766.5 307.5,762.0 299.5,758.0 305.0,754.5 323.0,767.5 327.5,742.0 332.0,748.5 338.5,743.0 331.5,736.0 350.0,739.5 354.5,727.0 347.0,717.5 326.0,727.5 332.5,729.0 326.0,736.5 311.0,728.5 288.0,733.5 288.0,720.5 300.0,728.5 324.5,720.0 315.5,719.0 318.5,709.0 311.0,702.5 301.0,710.5 294.0,701.5 294.0,707.5 282.0,703.5 267.0,710.5 275.0,696.5 292.0,699.5 293.0,690.5 301.5,691.0 302.0,703.5 308.5,687.0 297.5,684.0 307.5,679.0 300.5,679.0 301.0,669.5 277.0,671.5 270.0,658.5 261.0,663.5 258.5,655.0 269.0,656.5 276.0,643.5 284.0,645.5 298.5,632.0 264.0,636.5 251.5,628.0 253.0,619.5 236.0,616.5 226.0,623.5 234.5,615.0 221.5,599.0 241.0,603.5 245.5,597.0 240.0,592.5 217.0,589.5 195.0,600.5 195.0,588.5 178.0,601.5 169.0,588.5 156.5,599.0 166.0,615.5 172.0,605.5 174.5,610.0 157.5,630.0 162.5,637.0 151.0,635.5 144.0,648.5 137.0,634.5 130.5,641.0 138.5,658.0 129.5,673.0 145.5,682.0 136.5,695.0 148.5,701.0 134.0,705.5 130.0,696.5 125.0,712.5 120.0,704.5 119.0,713.5 115.0,707.5 103.5,716.0 106.0,725.5 81.5,738.0 85.0,747.5 95.5,747.0 92.0,752.5 101.5,752.0 91.0,764.5 62.0,758.5 55.5,764.0 60.0,773.5 46.0,770.5 29.0,784.5 18.0,769.5 12.5,792.0 3.0,796.5 13.5,772.0 1.5,770.0 1.5,755.0 15.5,756.0 8.0,730.5 25.0,728.5 31.0,737.5 52.5,739.0 42.5,746.0 40.0,762.5 20.5,767.0 28.0,778.5 49.0,767.5 49.5,757.0 58.5,758.0 51.5,752.0 61.5,745.0 58.5,726.0 41.5,717.0 39.0,705.5 32.5,721.0 19.0,725.5 17.0,717.5 1.5,712.0 7.5,677.0 1.5,675.0 1.5,654.0 20.5,646.0 13.0,640.5 1.5,648.0 1.5,603.0 8.5,600.0 1.5,583.0 17.5,579.0 1.5,574.0 1.5,525.0 8.5,518.0 2.5,515.0 22.0,526.5 24.0,516.5 37.5,514.0 22.5,508.0 40.5,503.0 25.0,488.5 14.5,494.0 24.0,501.5 9.0,510.5 1.5,503.0 1.5,428.0 8.0,424.5 8.0,432.5 14.5,425.0 14.0,408.5 20.0,413.5 29.5,408.0 21.5,426.0 29.5,429.0 19.5,437.0 39.5,443.0 34.0,456.5 19.5,462.0 37.0,464.5 67.0,440.5 103.0,439.5 102.0,430.5 90.0,433.5 83.5,424.0 92.0,426.5 92.0,419.5 106.5,413.0 102.0,408.5 79.0,416.5 73.5,412.0 83.0,412.5 98.0,398.5 119.0,403.5 127.0,393.5 122.5,403.0 137.0,400.5 135.5,411.0 146.5,415.0 132.0,427.5 118.5,424.0 127.0,433.5 138.5,433.0 128.5,437.0 125.5,457.0 139.0,455.5 135.0,466.5 161.5,475.0 125.5,498.0 156.0,500.5 157.0,492.5 162.0,502.5 173.0,498.5 189.0,514.5 193.0,503.5 222.0,509.5 220.0,496.5 188.0,499.5 174.0,492.5 176.0,484.5 196.5,478.0 180.5,469.0 202.0,476.5 218.0,462.5 233.0,462.5 234.5,453.0 224.5,453.0 229.0,444.5 203.5,444.0 215.5,439.0 215.5,425.0 220.0,438.5 235.0,414.5 242.5,416.0 241.0,424.5 271.5,411.0 244.0,399.5 243.5,410.0 233.0,410.5 226.5,400.0 247.0,391.5 268.0,403.5 267.0,397.5 276.5,396.0 269.5,392.0 285.5,383.0 282.0,372.5 296.0,375.5 329.5,345.0 319.0,342.5 310.0,354.5 305.0,341.5 285.0,344.5 300.5,350.0 297.0,360.5 282.5,363.0 283.0,370.5 278.0,360.5 272.0,373.5 261.0,374.5 257.0,367.5 238.5,374.0 257.0,381.5 253.0,386.5 241.0,378.5 232.0,381.5 237.5,374.0 221.5,371.0 253.5,367.0 237.5,362.0 254.5,358.0 250.5,343.0 271.5,319.0 261.0,317.5 259.0,324.5 252.0,310.5 244.5,313.0 279.0,295.5 282.5,291.0 274.5,287.0 282.0,275.5 295.0,276.5 287.5,281.0 298.0,286.5 300.0,277.5 325.0,264.5 327.5,272.0 296.5,294.0 301.5,305.0 291.5,311.0 307.5,311.0 309.5,321.0 296.5,324.0 313.0,348.5 319.0,337.5 346.0,325.5 378.0,324.5 383.0,333.5 387.5,309.0 397.5,309.0 401.0,292.5 405.0,297.5 436.5,289.0 422.0,285.5 418.0,273.5 391.5,274.0 405.5,263.0 389.5,249.0 403.0,250.5 408.0,262.5 415.5,254.0 405.5,247.0 419.5,225.0 408.0,223.5 404.5,240.0 396.0,243.5 399.5,237.0 392.5,231.0 425.0,216.5 423.5,208.0 457.5,180.0 437.0,179.5 433.5,195.0 412.0,214.5 423.5,197.0 417.5,195.0 420.5,183.0 426.0,192.5 430.5,186.0 415.0,171.5 396.0,189.5 397.5,175.0 449.0,136.5 454.5,136.0 454.0,147.5 462.5,139.0 459.0,130.5 476.0,139.5 474.5,124.0 486.0,122.5 486.5,112.0 503.5,105.0 499.5,94.0 511.5,93.0 517.5,75.0 514.0,68.5 502.0,74.5 490.0,91.5 484.5,76.0 474.5,76.0 487.5,50.0 492.0,56.5 498.5,47.0 489.5,42.0 505.0,40.5 497.5,33.0 509.0,32.5 513.5,21.0 508.0,17.5 507.0,25.5 490.0,30.5 500.5,17.0 475.0,23.5 478.5,11.0 469.5,9.0 471.0,1.5 515.0,1.5 504.5,7.0 507.0,13.5 521.0,1.5 1351.0,1.5 1354.0,8.5 1356.0,1.5 1444.0,1.5 1449.0,34.5 1459.5,26.0 1453.5,17.0 1465.0,1.5 1471.5,2.0 1462.5,21.0 1467.0,24.5 1492.0,1.5 1511.0,1.5 1500.0,13.5 1478.0,19.5 1464.0,38.5 1460.0,28.5 1447.0,36.5 1458.5,61.0 1421.5,89.0 1422.5,98.0 1431.5,99.0 1433.0,114.5 1448.5,110.0 1442.5,116.0 1446.0,129.5 1460.0,115.5 1467.0,127.5 1498.5,91.0 1499.5,80.0 1504.5,78.0 1504.0,90.5 1513.0,73.5 1508.5,88.0 1517.5,98.0 1502.0,93.5 1500.5,101.0 1515.0,109.5 1523.0,105.5 1530.5,122.0 1519.5,131.0 1526.5,141.0 1506.0,159.5 1499.0,146.5 1486.0,162.5 1471.5,164.0 1477.0,151.5 1458.5,170.0 1468.0,168.5 1477.5,176.0 1472.5,181.0 1487.5,190.0 1473.5,197.0 1482.0,204.5 1492.0,185.5 1499.0,188.5 1511.5,181.0 1510.0,173.5 1515.0,178.5 1521.0,167.5 1533.5,166.0 1521.5,174.0 1533.5,176.0 1533.5,271.0 1519.5,283.0 1533.5,283.0 1505.5,317.0 1512.0,325.5 1525.0,305.5 1533.5,334.0 1533.5,366.0 1526.5,364.0 1532.5,376.0 1520.5,407.0 1510.5,410.0 1516.0,418.5 1523.5,411.0 1525.5,426.0 1517.5,427.0 1529.5,440.0 1518.5,450.0 1531.0,453.5 1533.5,464.0 1509.5,527.0 1516.5,561.0 1494.5,562.0 1508.5,572.0 1503.0,588.5 1468.5,598.0 1478.0,607.5 1492.5,604.0 1475.5,611.0 1484.5,615.0 1481.0,619.5 1465.5,621.0 1474.0,629.5 1455.0,639.5 1455.0,632.5 1441.5,634.0 1442.0,621.5 1425.0,635.5 1409.0,622.5 1382.0,620.5 1384.5,629.0 1375.5,631.0 1383.5,641.0 1366.0,642.5 1346.5,667.0 1352.0,670.5 1374.0,655.5 1376.5,661.0 1354.5,677.0 1372.0,673.5 1376.0,686.5 1385.0,679.5 1380.5,691.0 1393.0,695.5 1401.5,693.0 1395.5,689.0 1401.0,681.5 1405.0,697.5 1428.0,691.5 1422.0,705.5 1376.0,699.5 1344.5,712.0 1365.0,718.5 1377.0,710.5 1378.5,720.0 1367.5,723.0 1371.0,734.5 1398.5,731.0 1380.5,721.0 1391.0,711.5 1392.0,720.5 1445.0,724.5 1448.0,717.5 1460.5,725.0 1460.0,746.5 1462.5,733.0 1474.0,727.5 1484.0,744.5 1489.0,739.5 1499.5,745.0 1510.0,765.5 1522.0,752.5 1528.5,761.0 1532.5,838.0 1520.5,847.0 1518.5,906.0 1510.5,922.0 1518.5,924.0 1522.5,954.0 1517.0,945.5 1505.5,958.0 1507.0,964.5 1521.5,958.0 1498.0,992.5 1481.0,991.5 1470.0,976.5 1440.0,996.5 1397.0,998.5 1393.0,1011.5 1383.0,986.5 1374.0,986.5 1370.0,975.5 1358.0,982.5 1351.0,975.5 1333.0,991.5 1328.0,988.5 1323.5,1006.0 1302.0,1021.5" fill="white"/>
</svg>
